<?xml version="1.0" encoding="UTF-8"?>
<svg id="Camada_1" xmlns="http://www.w3.org/2000/svg" version="1.1" viewBox="0 0 136 63">
  <!-- Generator: Adobe Illustrator 29.4.0, SVG Export Plug-In . SVG Version: 2.1.0 Build 152)  -->
  <defs>
    <style>
      .st0 {
        fill: #fff;
      }
    </style>
  </defs>
  <path class="st0" d="M44.2,58.3c-5.2,2.9-11.8,3.9-16.5,3.9-14.7,0-26.3-9.4-26.3-30.7S13,.8,28,.8s9.4.9,15.4,3.7v11.8l-5.7-2.8-1.8-.8c-3.3-1.3-6.2-1.4-7.7-1.4-6.4,0-12.8,6.6-12.8,20.2s7.1,20.2,14.2,20.2,10-.9,14.8-3.7v10.3Z"/>
  <g>
    <path class="st0" d="M55.9,55.9l15.5-51.3.7-2.5h14.7l17,56.3.7,2.5h-15l-1.8-7.5h-16.4l-2.3,7.5h-14.4l1.4-5ZM84.8,43.3l-5.4-18.6-5.4,18.6h10.7Z"/>
    <circle class="st0" cx="120.6" cy="16.3" r="14"/>
  </g>
</svg>