<?xml version="1.0" encoding="UTF-8"?>
<svg id="Camada_1" data-name="Camada 1" xmlns="http://www.w3.org/2000/svg" viewBox="0 0 360.3 129.96">
  <defs>
    <style>
      .cls-1 {
        fill: #fff;
      }
    </style>
  </defs>
  <path class="cls-1" d="M47.46,58.06c-5.25,2.88-11.87,3.9-16.7,3.9-14.83,0-26.53-9.49-26.53-30.94S15.93,0,31.11,0c3.98,0,9.49.93,15.51,3.73v11.87l-5.76-2.8-1.86-.76c-3.31-1.36-6.27-1.44-7.8-1.44-6.44,0-12.97,6.7-12.97,20.34s7.12,20.43,14.32,20.43c3.64,0,10.09-.93,14.92-3.73v10.42Z"/>
  <path class="cls-1" d="M72.89,0c14.66,0,23.73,10.09,23.73,31.02s-9.07,30.94-23.73,30.94-23.73-10-23.73-30.94S58.14,0,72.89,0ZM72.89,51.36c6.27,0,9.75-6.1,9.75-20.34s-3.48-20.43-9.75-20.43-9.75,6.19-9.75,20.43,3.39,20.34,9.75,20.34Z"/>
  <path class="cls-1" d="M114.42,29.33v31.36h-13.56V1.36h13.56l16.95,30.77V1.36h13.56v59.33h-13.56l-16.95-31.36Z"/>
  <path class="cls-1" d="M159.51,1.36l3.05,10.17,7.54,26.36,7.54-26.36,2.46-10.17h15.17l-.68,2.54-17.12,56.79h-14.83l-14.75-49.16-2.97-10.17h14.58Z"/>
  <path class="cls-1" d="M208.84,36.11v14.41h22.04v10.17h-35.6V1.36h34.75v10.17h-21.19v14.41h17.8v10.17h-17.8Z"/>
  <path class="cls-1" d="M233.66,1.36h20.59c15.17,0,23.05,5.68,23.05,19.24,0,9.49-3.9,15.17-11.44,17.63l11.27,22.46h-15l-1.19-2.54-2.71-5.09-6.7-13.22h-4.32v20.85h-13.56V1.36ZM252.56,29.66c7.03,0,10.76-2.46,10.76-9.07s-3.73-9.07-10.76-9.07h-5.34v18.14h5.34Z"/>
  <path class="cls-1" d="M278.76,11.53V1.36h40.68v10.17h-13.56v49.16h-13.56V11.53h-13.56Z"/>
  <path class="cls-1" d="M311.39,55.68l15.59-51.79.68-2.54h14.83l17.12,56.79.68,2.54h-15.17l-1.78-7.54h-16.53l-2.29,7.54h-14.58l1.44-5ZM340.55,42.97l-5.42-18.82-5.42,18.82h10.85Z"/>
  <path class="cls-1" d="M1.44,123.69l15.59-51.79.68-2.54h14.83l17.12,56.79.68,2.54h-15.17l-1.78-7.54h-16.53l-2.29,7.54H0l1.44-5ZM30.6,110.97l-5.42-18.82-5.42,18.82h10.85Z"/>
  <path class="cls-1" d="M71.03,95.12h21.53v28.73c-5.34,4.83-14.41,6.1-19.24,6.1-14.83,0-26.53-9.49-26.53-30.94s11.7-31.02,25.85-31.02c5.85,0,11.36,1.27,16.7,3.73v11.87l-5.76-2.8-1.87-.76c-3.31-1.36-6.44-1.44-7.97-1.44-7.2,0-12.97,6.7-12.97,20.34s7.12,20.43,13.56,20.43c3.14,0,6.36-1.61,6.36-4.07v-10h-9.66v-10.17Z"/>
  <path class="cls-1" d="M118.83,68c14.66,0,23.73,10.09,23.73,31.02s-9.07,30.94-23.73,30.94-23.73-10-23.73-30.94,8.98-31.02,23.73-31.02ZM118.83,119.36c6.27,0,9.75-6.1,9.75-20.34s-3.48-20.43-9.75-20.43-9.75,6.19-9.75,20.43,3.39,20.34,9.75,20.34Z"/>
  <path class="cls-1" d="M146.8,69.36h20.6c15.17,0,23.05,5.68,23.05,19.24,0,9.49-3.9,15.17-11.44,17.63l11.27,22.46h-15l-1.19-2.54-2.71-5.08-6.7-13.22h-4.32v20.85h-13.56v-59.33ZM165.7,97.67c7.03,0,10.76-2.46,10.76-9.07s-3.73-9.07-10.76-9.07h-5.34v18.14h5.34Z"/>
  <path class="cls-1" d="M190.19,123.69l15.59-51.79.68-2.54h14.83l17.12,56.79.68,2.54h-15.17l-1.78-7.54h-16.53l-2.29,7.54h-14.58l1.44-5ZM219.35,110.97l-5.42-18.82-5.42,18.82h10.85Z"/>
  <text/>
  <circle class="cls-1" cx="255.48" cy="83.65" r="14.15"/>
</svg>